<svg xmlns="http://www.w3.org/2000/svg" width="24" height="24" viewBox="0 0 24 24"><rect width="24" height="24" fill="none"/><path d="M7.143,1.5V3h5.714V1.5a1.43,1.43,0,1,1,2.857,0V3h2.143A2.2,2.2,0,0,1,20,5.25V7.5H0V5.25A2.2,2.2,0,0,1,2.143,3H4.286V1.5A1.465,1.465,0,0,1,5.714,0,1.465,1.465,0,0,1,7.143,1.5ZM0,9H20V21.75A2.2,2.2,0,0,1,17.857,24H2.143A2.2,2.2,0,0,1,0,21.75Zm2.857,5.25a.734.734,0,0,0,.714.75H5a.735.735,0,0,0,.714-.75v-1.5A.735.735,0,0,0,5,12H3.571a.734.734,0,0,0-.714.75Zm5.714,0a.735.735,0,0,0,.714.75h1.429a.735.735,0,0,0,.714-.75v-1.5a.735.735,0,0,0-.714-.75H9.286a.735.735,0,0,0-.714.75ZM15,12a.735.735,0,0,0-.714.75v1.5A.735.735,0,0,0,15,15h1.429a.735.735,0,0,0,.714-.75v-1.5a.735.735,0,0,0-.714-.75ZM2.857,20.25a.734.734,0,0,0,.714.75H5a.735.735,0,0,0,.714-.75v-1.5A.735.735,0,0,0,5,18H3.571a.734.734,0,0,0-.714.75ZM9.286,18a.735.735,0,0,0-.714.75v1.5a.735.735,0,0,0,.714.75h1.429a.735.735,0,0,0,.714-.75v-1.5a.735.735,0,0,0-.714-.75Zm5,2.25A.735.735,0,0,0,15,21h1.429a.735.735,0,0,0,.714-.75v-1.5a.735.735,0,0,0-.714-.75H15a.735.735,0,0,0-.714.75Z" transform="translate(2)"/></svg>