<svg xmlns="http://www.w3.org/2000/svg" width="24" height="24" viewBox="0 0 24 24"><rect width="24" height="24" fill="none"/><path fill="#ce472b" d="M21.6,0H2.4C1.08,0,0,1.385,0,3.077V15.385c0,1.692,1.08,3.077,2.4,3.077H21.6c1.32,0,2.4-1.385,2.4-3.077V3.077C24,1.385,22.92,0,21.6,0ZM2.4,11.154a.352.352,0,0,1,.3-.385h.6a.352.352,0,0,1,.3.385v.769a.352.352,0,0,1-.3.385H2.7a.352.352,0,0,1-.3-.385Zm10.2,4.231H3a.7.7,0,0,1-.6-.769c0-.423.27-.769.566-.769h9.6a.7.7,0,0,1,.6.769A.658.658,0,0,1,12.6,15.385ZM4.8,11.923v-.769a.351.351,0,0,1,.3-.385h.6a.351.351,0,0,1,.3.385v.769a.351.351,0,0,1-.3.385H5.1A.351.351,0,0,1,4.8,11.923Zm2.4,0v-.769a.351.351,0,0,1,.3-.385h.6a.351.351,0,0,1,.3.385v.769a.351.351,0,0,1-.3.385H7.5A.351.351,0,0,1,7.2,11.923Zm2.4,0v-.769a.351.351,0,0,1,.3-.385h.6a.351.351,0,0,1,.3.385v.769a.351.351,0,0,1-.3.385H9.9A.351.351,0,0,1,9.6,11.923Zm3.6,0a.351.351,0,0,1-.3.385h-.6a.351.351,0,0,1-.3-.385v-.769a.351.351,0,0,1,.3-.385h.6a.351.351,0,0,1,.3.385Zm0-3.572c0,.49-.285.88-.641.88H3.04c-.355,0-.64-.389-.64-.88V3.957c0-.49.285-.88.64-.88h9.521c.354,0,.639.389.639.88ZM21,15.385H15a.7.7,0,0,1-.6-.769.7.7,0,0,1,.6-.769h6a.7.7,0,0,1,.6.769A.7.7,0,0,1,21,15.385Z" transform="translate(0 3)"/></svg>