<svg xmlns="http://www.w3.org/2000/svg" width="24" height="24" viewBox="0 0 24 24"><rect width="24" height="24" fill="none"/><path d="M21.333,0H2.667A2.97,2.97,0,0,0,0,3.2v16a2.97,2.97,0,0,0,2.667,3.2H21.333A2.97,2.97,0,0,0,24,19.2V3.2A2.971,2.971,0,0,0,21.333,0Zm-14,4.8A2.97,2.97,0,0,1,10,8a2.97,2.97,0,0,1-2.667,3.2A2.97,2.97,0,0,1,4.667,8,2.971,2.971,0,0,1,7.333,4.8Zm4,12.8h-8a.744.744,0,0,1-.667-.8c0-2.21,1.492-4,3.333-4H8.667c1.841,0,3.333,1.791,3.333,4A.745.745,0,0,1,11.333,17.6Zm9.333-3.2H15.333a.813.813,0,0,1,0-1.6h5.333a.813.813,0,0,1,0,1.6Zm0-3.2H15.333a.745.745,0,0,1-.667-.8.745.745,0,0,1,.667-.8h5.333a.745.745,0,0,1,.667.8A.745.745,0,0,1,20.667,11.2Zm0-3.2H15.333a.745.745,0,0,1-.667-.8.745.745,0,0,1,.667-.8h5.333a.745.745,0,0,1,.667.8A.745.745,0,0,1,20.667,8Z" transform="translate(0 1)"/></svg>