<svg xmlns="http://www.w3.org/2000/svg" width="23.923" height="24.001" viewBox="0 0 23.923 24.001"><g transform="translate(-46.486 -10.423)"><path d="M67.992,32.75H47.55l.023-.118.881-4.547a2.387,2.387,0,0,1,2.146-2.33l2.5-.582s-.028-2.357,2.145-2.013l.055-1.033s-1.825-.734-1.9-3.533v-.042l-.024-.007c-.14-.047-.842-.341-.966-1.555s.368-1.019.475-.965c-.018-.139-.028-.224-.028-.224-1.21-5.853,3-3.973,3-3.973,1.485-2.6,4.95-.8,4.95-.8,2.807,1.077,1.832,4.885,1.816,4.952.029-.017.628-.366.494.954-.138,1.35-.99,1.563-.99,1.563-.056,2.834-1.9,3.576-1.9,3.576l.055,1.032c2.172-.344,2.145,2.013,2.145,2.013l2.5.582a2.386,2.386,0,0,1,2.144,2.331Z" transform="translate(-1.064 0)" fill="#e79d4f"/><path d="M67.992,32.75H47.55l.023-.118.881-4.547a2.387,2.387,0,0,1,2.146-2.33l2.5-.582s-.028-2.357,2.145-2.013l.055-1.033s-1.825-.734-1.9-3.533v-.042l-.024-.007c-.14-.047-.842-.341-.966-1.555s.368-1.019.475-.965c-.018-.139-.028-.224-.028-.224-1.21-5.853,3-3.973,3-3.973,1.485-2.6,4.95-.8,4.95-.8,2.807,1.077,1.832,4.885,1.816,4.952.029-.017.628-.366.494.954-.138,1.35-.99,1.563-.99,1.563-.056,2.834-1.9,3.576-1.9,3.576l.055,1.032c2.172-.344,2.145,2.013,2.145,2.013l2.5.582a2.386,2.386,0,0,1,2.144,2.331Z" transform="translate(2.417 1.674)" fill="#f5f5f5"/></g></svg>