<svg xmlns="http://www.w3.org/2000/svg" width="24" height="24" viewBox="0 0 24 24"><rect width="24" height="24" fill="none"/><path fill="#6f6f6f" d="M17.988,0a11.135,11.135,0,0,1,5.237,1.436A1.6,1.6,0,0,1,24,2.87V20.431c0,.567-.5.96-.935.719a8.079,8.079,0,0,0-9.325.688.6.6,0,0,1-.406.162c-.517,0-.667-.559-.667-.785V2.359a.836.836,0,0,1,.283-.642A8.659,8.659,0,0,1,17.988,0ZM.776,1.438A11.434,11.434,0,0,1,6.013,0a8.793,8.793,0,0,1,5.037,1.715.831.831,0,0,1,.283.643V21.172c0,.258-.146.828-.667.828a.6.6,0,0,1-.408-.163,8.073,8.073,0,0,0-9.324-.688C.5,21.389,0,21,0,20.43V2.869A1.685,1.685,0,0,1,.776,1.438Z" transform="translate(0 1)"/></svg>