<svg xmlns="http://www.w3.org/2000/svg" width="24" height="24" viewBox="0 0 24 24"><rect width="24" height="24" fill="none"/><path fill="#6f6f6f" d="M22.5,0H6A1.5,1.5,0,0,0,4.5,1.506V17.325a.75.75,0,1,1-1.5,0V3.013H1.5A1.5,1.5,0,0,0,0,4.519V18.078a3.006,3.006,0,0,0,3,3.013H21a3.006,3.006,0,0,0,3-3.013V1.506A1.5,1.5,0,0,0,22.5,0ZM12.75,18.078H8.25a.753.753,0,0,1,0-1.507h4.5a.753.753,0,0,1,0,1.507Zm0-4.52H8.25a.753.753,0,0,1,0-1.506h4.5a.753.753,0,0,1,0,1.506Zm7.5,4.52h-4.5a.753.753,0,0,1,0-1.507h4.5a.753.753,0,0,1,0,1.507Zm0-4.52h-4.5a.753.753,0,0,1,0-1.506h4.5a.753.753,0,0,1,0,1.506ZM21,8.286a.754.754,0,0,1-.75.753h-12a.754.754,0,0,1-.75-.753V3.766a.754.754,0,0,1,.75-.753h12a.754.754,0,0,1,.75.753Z" transform="translate(0 1)"/></svg>