<svg xmlns="http://www.w3.org/2000/svg" width="24" height="24" viewBox="0 0 24 24"><path d="M23.993,11.977a1.438,1.438,0,0,1-1.333,1.5H21.326l.029,7.5a3.784,3.784,0,0,1-.021.38v.759A1.78,1.78,0,0,1,19.667,24H19c-.046,0-.092-.042-.137,0-.058-.038-.117,0-.175,0H16.334a1.78,1.78,0,0,1-1.667-1.875V18a1.423,1.423,0,0,0-1.333-1.5H10.667A1.423,1.423,0,0,0,9.334,18v4.125A1.78,1.78,0,0,1,7.667,24H5.338c-.062,0-.125,0-.188-.009S5.05,24,5,24H4.334a1.78,1.78,0,0,1-1.667-1.875v-5.25c0-.042,0-.089,0-.131V13.481H1.335A1.411,1.411,0,0,1,0,11.977a1.624,1.624,0,0,1,.417-1.125L11.1.376A1.124,1.124,0,0,1,12.017,0,1.3,1.3,0,0,1,12.9.329L23.534,10.852A1.344,1.344,0,0,1,23.993,11.977Z"/></svg>